<svg xmlns="http://www.w3.org/2000/svg" height="300px" width="300px" fill="#888" viewBox="0 0 16 16" enable-background="new 0 0 16 16" x="0px" y="0px"><g><path d="M6.321 10.68c-.256 0-.512-.098-.707-.293-1.953-1.954-1.953-5.132 0-7.085l1.851-1.852c.946-.946 2.205-1.467 3.543-1.467s2.596.521 3.542 1.467 1.468 2.205 1.468 3.543-.521 2.596-1.468 3.542c-.391.391-1.023.391-1.414 0s-.391-1.024 0-1.414c.568-.569.882-1.325.882-2.128 0-.804-.313-1.56-.882-2.129-1.137-1.137-3.12-1.137-4.257 0l-1.851 1.851c-1.173 1.174-1.173 3.083 0 4.257.391.391.391 1.023 0 1.414-.195.196-.451.294-.707.294zM5.028 15.982c-1.338 0-2.596-.521-3.542-1.468-.946-.945-1.468-2.204-1.468-3.542s.521-2.596 1.467-3.542c.391-.391 1.023-.391 1.414 0s.391 1.023 0 1.414c-.569.568-.882 1.325-.882 2.129s.313 1.56.882 2.128c1.138 1.137 3.119 1.137 4.257 0l1.699-1.699c.568-.568.882-1.324.882-2.128s-.313-1.56-.882-2.129c-.391-.39-.391-1.023 0-1.414s1.023-.391 1.414 0c.946.946 1.468 2.204 1.468 3.543 0 1.338-.521 2.597-1.468 3.542l-1.699 1.699c-.946.946-2.204 1.467-3.542 1.467z"/></g></svg>
